<svg xmlns="http://www.w3.org/2000/svg" viewBox="0 0 598.06 475.37"><defs><style>.cls-1{fill:none;stroke:#fff;stroke-linecap:round;stroke-linejoin:round;stroke-width:60px;}</style></defs><g id="Camera"><polyline class="cls-1" points="533 114.23 450.09 114.23 398.7 30 299.03 30"/><line class="cls-1" x1="568.06" y1="410.31" x2="568.06" y2="149.29"/><line class="cls-1" x1="299.03" y1="445.37" x2="533" y2="445.37"/><circle class="cls-1" cx="299.03" cy="250.55" r="89.71"/><path class="cls-1" d="M769,671.68A35.06,35.06,0,0,1,734,706.74" transform="translate(-200.97 -261.38)"/><path class="cls-1" d="M734,375.61A35.06,35.06,0,0,1,769,410.67" transform="translate(-200.97 -261.38)"/><polyline class="cls-1" points="65.06 114.23 147.97 114.23 199.36 30 299.03 30"/><line class="cls-1" x1="30" y1="410.31" x2="30" y2="149.29"/><line class="cls-1" x1="299.03" y1="445.37" x2="65.06" y2="445.37"/><path class="cls-1" d="M231,671.68A35.06,35.06,0,0,0,266,706.74" transform="translate(-200.97 -261.38)"/><path class="cls-1" d="M266,375.61A35.06,35.06,0,0,0,231,410.67" transform="translate(-200.97 -261.38)"/></g></svg>