<svg xmlns="http://www.w3.org/2000/svg" viewBox="0 0 597.46 598.53"><defs><style>.cls-1{fill:none;stroke:#fff;stroke-miterlimit:10;stroke-width:60px;}</style></defs><g id="Gallery"><line class="cls-1" x1="465.12" y1="138.78" x2="465.12" y2="247.56"/><line class="cls-1" x1="247.56" y1="30" x2="356.34" y2="30"/><path class="cls-1" d="M558.84,231A108.79,108.79,0,0,1,667.62,339.77" transform="translate(-202.5 -200.98)"/><line class="cls-1" x1="30" y1="138.78" x2="30" y2="247.56"/><line class="cls-1" x1="30" y1="245.87" x2="30" y2="354.65"/><line class="cls-1" x1="247.56" y1="30" x2="138.78" y2="30"/><path class="cls-1" d="M341.28,231A108.79,108.79,0,0,0,232.5,339.77" transform="translate(-202.5 -200.98)"/><line class="cls-1" x1="465.12" y1="354.65" x2="465.12" y2="245.87"/><line class="cls-1" x1="247.56" y1="463.43" x2="356.34" y2="463.43"/><path class="cls-1" d="M558.84,664.42A108.78,108.78,0,0,0,667.62,555.64" transform="translate(-202.5 -200.98)"/><line class="cls-1" x1="247.56" y1="463.43" x2="138.78" y2="463.43"/><path class="cls-1" d="M341.28,664.42A108.78,108.78,0,0,1,232.5,555.64" transform="translate(-202.5 -200.98)"/><line class="cls-1" x1="567.46" y1="243.88" x2="567.46" y2="352.66"/><path class="cls-1" d="M661.18,336.08A108.78,108.78,0,0,1,770,444.86" transform="translate(-202.5 -200.98)"/><line class="cls-1" x1="567.46" y1="459.75" x2="567.46" y2="350.97"/><line class="cls-1" x1="349.9" y1="568.53" x2="458.68" y2="568.53"/><path class="cls-1" d="M661.18,769.52A108.79,108.79,0,0,0,770,660.73" transform="translate(-202.5 -200.98)"/><line class="cls-1" x1="349.9" y1="568.53" x2="241.12" y2="568.53"/><path class="cls-1" d="M443.62,769.52A108.79,108.79,0,0,1,334.84,660.73" transform="translate(-202.5 -200.98)"/></g></svg>