<svg xmlns="http://www.w3.org/2000/svg" viewBox="0 0 598.42 597.08"><defs><style>.cls-1{fill:none;stroke:#fff;stroke-linecap:round;stroke-linejoin:round;stroke-width:60px;}</style></defs><g id="Social-Tab"><path class="cls-1" d="M461.92,263.87a79.76,79.76,0,1,1-64.36-32.65,79.4,79.4,0,0,1,64.36,32.65" transform="translate(-201.46 -201.22)"/><path class="cls-1" d="M388.56,768.3H231.46V673.46A166.21,166.21,0,0,1,460.35,519.63" transform="translate(-201.46 -201.22)"/><path class="cls-1" d="M689.37,369.15a63.12,63.12,0,1,1-50.93-25.83,62.82,62.82,0,0,1,50.93,25.83" transform="translate(-201.46 -201.22)"/><path class="cls-1" d="M507,693.25a131.44,131.44,0,0,1,262.87,0v75H507Z" transform="translate(-201.46 -201.22)"/></g></svg>